<?xml version="1.0" encoding="utf-8"?>
<svg version="1.1" baseProfile="tiny"
	 xmlns="http://www.w3.org/2000/svg" xmlns:xlink="http://www.w3.org/1999/xlink" x="0px" y="0px" viewBox="0 0 210 210"
	 xml:space="preserve">
<linearGradient id="SVGID_1_" gradientUnits="userSpaceOnUse" x1="-1" y1="211" x2="211" y2="-1">
	<stop  offset="0" style="stop-color:#001226"/>
	<stop  offset="0.03053" style="stop-color:#00142A"/>
	<stop  offset="0.15509" style="stop-color:#091F39"/>
	<stop  offset="0.25616" style="stop-color:#162844"/>
	<stop  offset="0.32051" style="stop-color:#1A2B49"/>
	<stop  offset="0.76222" style="stop-color:#151B38"/>
	<stop  offset="0.99487" style="stop-color:#121531"/>
</linearGradient>
<rect x="-1" y="-1" fill="url(#SVGID_1_)" width="212" height="212"/>
<g>
	<circle fill="#FFFFFF" cx="23.02697" cy="115.44314" r="5.9375"/>
	<circle fill="#FFFFFF" cx="48.43356" cy="126.28371" r="3.53125"/>
	<circle fill="#FFFFFF" cx="144.12283" cy="117.9753" r="2.76417"/>
	<circle fill="#FFFFFF" cx="159.93356" cy="39.11171" r="2.76417"/>
	<circle fill="#FFFFFF" cx="146.43575" cy="131.78694" r="2.76417"/>
	<circle fill="#FFFFFF" cx="86.03079" cy="104.33586" r="2.76417"/>
	<circle fill="#FFFFFF" cx="117.86081" cy="5.6118" r="2.76417"/>
	<circle fill="#FFFFFF" cx="73.8062" cy="20.88603" r="2.76417"/>
	<circle fill="#FFFFFF" cx="94.08554" cy="65.97885" r="2.76417"/>
	<circle fill="#FFFFFF" cx="49.62615" cy="9.73278" r="2.03458"/>
	<circle fill="#FFFFFF" cx="181.37579" cy="82.40799" r="2.03458"/>
	<circle fill="#FFFFFF" cx="117.89754" cy="41.55891" r="2.03458"/>
	<circle fill="#FFFFFF" cx="157.31592" cy="146.80579" r="2.03458"/>
	<circle fill="#FFFFFF" cx="98.1246" cy="51.89708" r="1.40865"/>
	<circle fill="#FFFFFF" cx="147.23651" cy="151.20569" r="1.40865"/>
	<circle fill="#FFFFFF" cx="132.58478" cy="201.90363" r="1.40865"/>
	<circle fill="#FFFFFF" cx="95.16225" cy="54.54961" r="1.40865"/>
	<circle fill="#FFFFFF" cx="140.70244" cy="42.70153" r="1.40865"/>
	<circle fill="#FFFFFF" cx="112.98997" cy="47.89069" r="1.40865"/>
	<circle fill="#FFFFFF" cx="98.70317" cy="5.38508" r="1.40865"/>
	<circle fill="#FFFFFF" cx="107.69344" cy="39.27144" r="1.40865"/>
	<circle fill="#FFFFFF" cx="103.19279" cy="29.04332" r="1.40865"/>
	<circle fill="#FFFFFF" cx="162.47339" cy="194.34779" r="1.40865"/>
	<line fill="#FFFFFF" stroke="#FFFFFF" stroke-miterlimit="10" x1="49.62615" y1="9.73278" x2="73.8062" y2="20.88603"/>
	<line fill="none" stroke="#FFFFFF" stroke-miterlimit="10" x1="86.03079" y1="104.33586" x2="94.08554" y2="65.97885"/>
	<line fill="none" stroke="#FFFFFF" stroke-miterlimit="10" x1="73.8062" y1="20.88603" x2="107.69344" y2="39.27144"/>
	<line fill="none" stroke="#FFFFFF" stroke-miterlimit="10" x1="94.08554" y1="65.97885" x2="95.16225" y2="54.54961"/>
	<line fill="none" stroke="#FFFFFF" stroke-miterlimit="10" x1="98.1246" y1="51.89708" x2="95.16225" y2="54.54961"/>
	<line fill="none" stroke="#FFFFFF" stroke-miterlimit="10" x1="107.69344" y1="39.27144" x2="98.1246" y2="51.89708"/>
	<line fill="none" stroke="#FFFFFF" stroke-miterlimit="10" x1="103.19279" y1="29.04332" x2="107.69344" y2="39.27144"/>
	<line fill="none" stroke="#FFFFFF" stroke-miterlimit="10" x1="98.70317" y1="5.38508" x2="103.19279" y2="29.04332"/>
	<line fill="none" stroke="#FFFFFF" stroke-miterlimit="10" x1="117.86081" y1="5.6118" x2="98.70317" y2="5.38508"/>
	<line fill="none" stroke="#FFFFFF" stroke-miterlimit="10" x1="117.89754" y1="41.55891" x2="117.86081" y2="5.6118"/>
	<line fill="none" stroke="#FFFFFF" stroke-miterlimit="10" x1="181.37579" y1="82.40799" x2="159.93356" y2="39.11171"/>
	<line fill="none" stroke="#FFFFFF" stroke-miterlimit="10" x1="140.70244" y1="42.70153" x2="159.93356" y2="39.11171"/>
	<line fill="none" stroke="#FFFFFF" stroke-miterlimit="10" x1="117.89754" y1="41.55891" x2="140.70244" y2="42.70153"/>
	<line fill="none" stroke="#FFFFFF" stroke-miterlimit="10" x1="112.98997" y1="47.89069" x2="117.89754" y2="41.55891"/>
	<line fill="none" stroke="#FFFFFF" stroke-miterlimit="10" x1="94.08554" y1="65.97885" x2="112.98997" y2="47.89069"/>
	<line fill="none" stroke="#FFFFFF" stroke-miterlimit="10" x1="23.02697" y1="115.44314" x2="48.43356" y2="126.28371"/>
	<line fill="none" stroke="#FFFFFF" stroke-miterlimit="10" x1="86.03079" y1="104.33586" x2="48.43356" y2="126.28371"/>
	<line fill="none" stroke="#FFFFFF" stroke-miterlimit="10" x1="132.58478" y1="201.90363" x2="147.23651" y2="151.20569"/>
	<line fill="none" stroke="#FFFFFF" stroke-miterlimit="10" x1="162.47339" y1="194.34779" x2="156.95697" y2="147.20082"/>
	<line fill="none" stroke="#FFFFFF" stroke-miterlimit="10" x1="146.43575" y1="131.78694" x2="157.31592" y2="146.80579"/>
	<line fill="none" stroke="#FFFFFF" stroke-miterlimit="10" x1="147.23651" y1="151.20569" x2="146.43575" y2="131.78694"/>
	<line fill="none" stroke="#FFFFFF" stroke-miterlimit="10" x1="144.12283" y1="117.9753" x2="146.43575" y2="131.78694"/>
	<line fill="none" stroke="#FFFFFF" stroke-miterlimit="10" x1="86.03079" y1="104.33586" x2="144.12283" y2="117.9753"/>
	<line fill="none" stroke="#FFFFFF" stroke-miterlimit="10" x1="94.08554" y1="65.97885" x2="144.12283" y2="117.9753"/>
</g>
</svg>
